<svg width="105" height="46" viewBox="0 0 105 46" fill="none" xmlns="http://www.w3.org/2000/svg">
<path d="M1.92809 5.5914C4.11809 5.3894 5.41109 4.5824 6.60609 3.7744C7.99909 2.7654 9.49209 2.2604 11.1841 2.2604C13.4731 2.2604 14.5681 2.9674 15.7621 3.7744C17.0561 4.5824 18.5491 5.5914 21.4351 5.5914H21.5341C24.4201 5.5914 25.9131 4.6824 27.2071 3.7744C28.5011 2.9664 29.4961 2.2604 31.6861 2.2604C33.9751 2.2604 35.3681 2.9674 36.4631 3.7744C37.7571 4.5824 38.9511 5.5914 41.8371 5.5914H41.9371C43.6291 5.5914 45.3211 5.1874 46.8141 4.3804C47.2121 4.1784 47.5111 3.9764 47.8091 3.7744C49.0031 2.9664 50.0981 2.2604 52.3871 2.2604C54.6761 2.2604 55.7711 2.9674 56.9651 3.7744C57.2641 3.9764 57.5621 4.1784 57.9601 4.3804C59.4531 5.1884 61.2441 5.5914 62.9361 5.5914C65.8221 5.5914 67.3151 4.5824 68.6091 3.7744C69.8031 2.9664 70.8981 2.2604 73.0881 2.2604C75.3771 2.2604 76.3721 2.9674 77.5671 3.7744C78.8611 4.6834 80.3541 5.5914 83.2401 5.5914H83.3401C86.2261 5.5914 87.7191 4.5824 89.0131 3.7744C89.8091 3.2694 90.6051 2.7654 91.5011 2.4624C93.2931 1.9574 95.6811 2.0584 97.2741 3.1694L98.1701 3.7754C99.2651 4.5834 100.559 5.3904 102.848 5.5924C103.671 5.6654 105.003 5.5604 105.003 4.4074C105.003 3.8164 104.53 3.3364 103.947 3.3364C102.977 3.3364 102.046 3.3114 101.106 2.9804C100.341 2.7114 99.6531 2.2844 98.9671 1.8564C98.2701 1.3514 97.5741 0.947402 96.6781 0.645402C96.1801 0.443402 95.7821 0.342395 95.1851 0.241395C94.5881 0.140395 93.9911 0.0393993 93.2941 0.0393993C92.1001 0.0393993 90.8061 0.2414 89.7111 0.7464C88.5171 1.2514 87.5211 2.0584 86.3271 2.6644C85.2321 3.1694 84.1371 3.4724 82.9431 3.4724C80.6541 3.4724 79.7581 2.6644 78.4641 1.8574C77.1701 0.9484 75.6771 0.141397 72.7911 0.141397C69.9051 0.141397 68.2131 1.1504 66.9191 1.9584C66.3221 2.3624 65.7251 2.7664 65.0281 3.0684C62.6391 3.9774 60.2511 3.1694 58.1611 1.8574C57.3651 1.3524 56.5691 0.847396 55.7721 0.545396C53.9801 -0.060604 51.7911 -0.161598 49.9991 0.242402C48.6061 0.545402 47.5111 1.1514 46.3171 1.8574C45.0231 2.6654 43.5301 3.3714 41.9381 3.3714C40.3461 3.3714 38.9521 2.7654 37.6581 1.9584C36.3641 1.1504 34.8711 0.141397 31.9851 0.141397C29.0991 0.141397 27.6061 1.0504 26.3121 1.9584C25.0181 2.7664 23.9231 3.4724 21.6341 3.4724C20.4401 3.4724 19.3451 3.2704 18.2501 2.7654C17.0561 2.1594 15.9611 1.2514 14.6671 0.7464C11.5821 -0.5656 8.2971 0.241399 5.6101 1.9574C4.8141 2.4624 4.01809 2.9674 3.02209 3.1684C2.42509 3.3704 1.82809 3.3704 1.33009 3.4714C0.832093 3.4714 0.235095 3.5724 0.0360945 4.1784C-0.0639055 4.5824 0.0360933 5.0874 0.434093 5.3894C0.833093 5.5914 1.53009 5.5914 1.92809 5.5914Z" fill="white"/>
<path d="M1.92809 25.5914C4.11809 25.3894 5.41109 24.5824 6.60609 23.7744C7.99909 22.7654 9.49209 22.2604 11.1841 22.2604C13.4731 22.2604 14.5681 22.9674 15.7621 23.7744C17.0561 24.5824 18.5491 25.5914 21.4351 25.5914H21.5341C24.4201 25.5914 25.9131 24.6824 27.2071 23.7744C28.5011 22.9664 29.4961 22.2604 31.6861 22.2604C33.9751 22.2604 35.3681 22.9674 36.4631 23.7744C37.7571 24.5824 38.9511 25.5914 41.8371 25.5914H41.9371C43.6291 25.5914 45.3211 25.1874 46.8141 24.3804C47.2121 24.1784 47.5111 23.9764 47.8091 23.7744C49.0031 22.9664 50.0981 22.2604 52.3871 22.2604C54.6761 22.2604 55.7711 22.9674 56.9651 23.7744C57.2641 23.9764 57.5621 24.1784 57.9601 24.3804C59.4531 25.1884 61.2441 25.5914 62.9361 25.5914C65.8221 25.5914 67.3151 24.5824 68.6091 23.7744C69.8031 22.9664 70.8981 22.2604 73.0881 22.2604C75.3771 22.2604 76.3721 22.9674 77.5671 23.7744C78.8611 24.6834 80.3541 25.5914 83.2401 25.5914H83.3401C86.2261 25.5914 87.7191 24.5824 89.0131 23.7744C89.8091 23.2694 90.6051 22.7654 91.5011 22.4624C93.2931 21.9574 95.6811 22.0584 97.2741 23.1694L98.1701 23.7754C99.2651 24.5834 100.559 25.3904 102.848 25.5924C103.671 25.6654 105.003 25.5604 105.003 24.4074C105.003 23.8164 104.53 23.3364 103.947 23.3364C102.977 23.3364 102.046 23.3114 101.106 22.9804C100.341 22.7114 99.6531 22.2844 98.9671 21.8564C98.2701 21.3514 97.5741 20.9474 96.6781 20.6454C96.1801 20.4434 95.7821 20.3424 95.1851 20.2414C94.5881 20.1404 93.9911 20.0394 93.2941 20.0394C92.1001 20.0394 90.8061 20.2414 89.7111 20.7464C88.5171 21.2514 87.5211 22.0584 86.3271 22.6644C85.2321 23.1694 84.1371 23.4724 82.9431 23.4724C80.6541 23.4724 79.7581 22.6644 78.4641 21.8574C77.1701 20.9484 75.6771 20.1414 72.7911 20.1414C69.9051 20.1414 68.2131 21.1504 66.9191 21.9584C66.3221 22.3624 65.7251 22.7664 65.0281 23.0684C62.6391 23.9774 60.2511 23.1694 58.1611 21.8574C57.3651 21.3524 56.5691 20.8474 55.7721 20.5454C53.9801 19.9394 51.7911 19.8384 49.9991 20.2424C48.6061 20.5454 47.5111 21.1514 46.3171 21.8574C45.0231 22.6654 43.5301 23.3714 41.9381 23.3714C40.3461 23.3714 38.9521 22.7654 37.6581 21.9584C36.3641 21.1504 34.8711 20.1414 31.9851 20.1414C29.0991 20.1414 27.6061 21.0504 26.3121 21.9584C25.0181 22.7664 23.9231 23.4724 21.6341 23.4724C20.4401 23.4724 19.3451 23.2704 18.2501 22.7654C17.0561 22.1594 15.9611 21.2514 14.6671 20.7464C11.5821 19.4344 8.2971 20.2414 5.6101 21.9574C4.8141 22.4624 4.01809 22.9674 3.02209 23.1684C2.42509 23.3704 1.82809 23.3704 1.33009 23.4714C0.832093 23.4714 0.235095 23.5724 0.0360945 24.1784C-0.0639055 24.5824 0.0360933 25.0874 0.434093 25.3894C0.833093 25.5914 1.53009 25.5914 1.92809 25.5914Z" fill="white"/>
<path d="M1.92809 45.5914C4.11809 45.3894 5.41109 44.5824 6.60609 43.7744C7.99909 42.7654 9.49209 42.2604 11.1841 42.2604C13.4731 42.2604 14.5681 42.9674 15.7621 43.7744C17.0561 44.5824 18.5491 45.5914 21.4351 45.5914H21.5341C24.4201 45.5914 25.9131 44.6824 27.2071 43.7744C28.5011 42.9664 29.4961 42.2604 31.6861 42.2604C33.9751 42.2604 35.3681 42.9674 36.4631 43.7744C37.7571 44.5824 38.9511 45.5914 41.8371 45.5914H41.9371C43.6291 45.5914 45.3211 45.1874 46.8141 44.3804C47.2121 44.1784 47.5111 43.9764 47.8091 43.7744C49.0031 42.9664 50.0981 42.2604 52.3871 42.2604C54.6761 42.2604 55.7711 42.9674 56.9651 43.7744C57.2641 43.9764 57.5621 44.1784 57.9601 44.3804C59.4531 45.1884 61.2441 45.5914 62.9361 45.5914C65.8221 45.5914 67.3151 44.5824 68.6091 43.7744C69.8031 42.9664 70.8981 42.2604 73.0881 42.2604C75.3771 42.2604 76.3721 42.9674 77.5671 43.7744C78.8611 44.6834 80.3541 45.5914 83.2401 45.5914H83.3401C86.2261 45.5914 87.7191 44.5824 89.0131 43.7744C89.8091 43.2694 90.6051 42.7654 91.5011 42.4624C93.2931 41.9574 95.6811 42.0584 97.2741 43.1694L98.1701 43.7754C99.2651 44.5834 100.559 45.3904 102.848 45.5924C103.671 45.6654 105.003 45.5604 105.003 44.4074C105.003 43.8164 104.53 43.3364 103.947 43.3364C102.977 43.3364 102.046 43.3114 101.106 42.9804C100.341 42.7114 99.6531 42.2844 98.9671 41.8564C98.2701 41.3514 97.5741 40.9474 96.6781 40.6454C96.1801 40.4434 95.7821 40.3424 95.1851 40.2414C94.5881 40.1404 93.9911 40.0394 93.2941 40.0394C92.1001 40.0394 90.8061 40.2414 89.7111 40.7464C88.5171 41.2514 87.5211 42.0584 86.3271 42.6644C85.2321 43.1694 84.1371 43.4724 82.9431 43.4724C80.6541 43.4724 79.7581 42.6644 78.4641 41.8574C77.1701 40.9484 75.6771 40.1414 72.7911 40.1414C69.9051 40.1414 68.2131 41.1504 66.9191 41.9584C66.3221 42.3624 65.7251 42.7664 65.0281 43.0684C62.6391 43.9774 60.2511 43.1694 58.1611 41.8574C57.3651 41.3524 56.5691 40.8474 55.7721 40.5454C53.9801 39.9394 51.7911 39.8384 49.9991 40.2424C48.6061 40.5454 47.5111 41.1514 46.3171 41.8574C45.0231 42.6654 43.5301 43.3714 41.9381 43.3714C40.3461 43.3714 38.9521 42.7654 37.6581 41.9584C36.3641 41.1504 34.8711 40.1414 31.9851 40.1414C29.0991 40.1414 27.6061 41.0504 26.3121 41.9584C25.0181 42.7664 23.9231 43.4724 21.6341 43.4724C20.4401 43.4724 19.3451 43.2704 18.2501 42.7654C17.0561 42.1594 15.9611 41.2514 14.6671 40.7464C11.5821 39.4344 8.2971 40.2414 5.6101 41.9574C4.8141 42.4624 4.01809 42.9674 3.02209 43.1684C2.42509 43.3704 1.82809 43.3704 1.33009 43.4714C0.832093 43.4714 0.235095 43.5724 0.0360945 44.1784C-0.0639055 44.5824 0.0360933 45.0874 0.434093 45.3894C0.833093 45.5914 1.53009 45.5914 1.92809 45.5914Z" fill="white"/>
</svg>
