<svg width="102" height="154" viewBox="0 0 102 154" fill="none" xmlns="http://www.w3.org/2000/svg">
<path d="M101.607 35.867L91.315 30.121C89.6447 29.1805 87.7689 28.6649 85.8525 28.6194C83.9362 28.5739 82.0381 28.9999 80.325 29.86C79.366 30.295 78.406 30.818 77.447 31.34C77.447 31.34 77.36 31.34 77.36 31.427C68.463 36.389 58.258 43.354 54.508 46.052C54.246 45.617 53.985 45.181 53.549 44.833C54.421 42.308 56.078 37.259 58.172 31.601C58.2489 31.6861 58.3433 31.7535 58.4488 31.7986C58.5543 31.8436 58.6683 31.8653 58.783 31.862L70.471 31.775C70.702 31.7747 70.9235 31.6829 71.0869 31.5197C71.2504 31.3564 71.3425 31.135 71.343 30.904C71.343 30.469 70.907 30.033 70.471 30.033H58.696C59.132 28.814 59.568 27.683 60.004 26.464H72.913C73.144 26.4637 73.3655 26.3719 73.5289 26.2087C73.6924 26.0454 73.7845 25.824 73.785 25.593C73.7842 25.3621 73.692 25.1408 73.5286 24.9776C73.3653 24.8144 73.1439 24.7225 72.913 24.722H60.615C61.051 23.59 61.487 22.372 62.011 21.24L76.839 21.153C77.07 21.1527 77.2915 21.0609 77.4549 20.8977C77.6184 20.7344 77.7105 20.513 77.711 20.282C77.711 19.76 77.362 19.411 76.839 19.411H62.709C63.058 18.628 63.32 17.844 63.668 17.061C63.842 17.235 64.017 17.409 64.366 17.409L79.455 17.235C79.686 17.2347 79.9075 17.1429 80.0709 16.9797C80.2344 16.8164 80.3265 16.595 80.327 16.364C80.3262 16.1331 80.234 15.9118 80.0706 15.7486C79.9072 15.5854 79.6859 15.4935 79.455 15.493L64.366 15.667H64.279L65.326 13.317C65.588 12.795 65.849 12.359 66.111 11.924C66.198 11.924 66.285 12.011 66.46 12.011H80.677C81.2 12.011 81.549 11.663 81.549 11.14C81.549 10.618 81.2 10.269 80.677 10.269H67.507C68.903 8.963 70.734 8.006 72.74 7.744L84.34 5.916C84.776 5.829 85.125 5.394 85.038 4.958C84.951 4.522 84.515 4.175 84.079 4.262L72.479 6.09C68.641 6.699 65.327 9.137 63.67 12.706C62.6101 15.0378 61.5922 17.3885 60.617 19.757C60.5318 19.8335 60.4643 19.9275 60.419 20.0327C60.3738 20.1378 60.3519 20.2516 60.355 20.366V20.453C56.692 29.42 53.203 39.779 51.807 43.958H51.72V0.871C51.72 0.349 51.371 0 50.848 0C50.325 0 49.976 0.348 49.976 0.871V43.963H49.889C48.493 39.784 44.917 29.512 41.341 20.458V20.371C41.341 20.11 41.254 19.849 41.079 19.762C40.032 17.237 39.073 14.887 38.026 12.711C36.369 9.142 33.054 6.704 29.217 6.095L17.617 4.267C17.181 4.18 16.658 4.528 16.658 4.963C16.571 5.398 16.92 5.921 17.356 5.921L28.956 7.749C31.049 8.097 32.881 9.055 34.364 10.448L21.019 10.274C20.496 10.274 20.147 10.622 20.147 11.145C20.147 11.667 20.496 12.016 21.019 12.016L35.236 12.19C35.41 12.19 35.498 12.103 35.672 12.103L36.457 13.409C36.806 14.192 37.155 14.889 37.504 15.759H37.417L22.328 15.585C22.097 15.5853 21.8755 15.6771 21.712 15.8403C21.5486 16.0036 21.4565 16.225 21.456 16.456C21.456 16.978 21.805 17.327 22.328 17.327L37.417 17.501C37.679 17.501 37.94 17.327 38.115 17.153C38.464 17.936 38.726 18.72 39.074 19.503H24.944C24.508 19.503 24.072 19.851 24.072 20.374C24.072 20.897 24.421 21.245 24.944 21.245L39.772 21.332C40.2144 22.5017 40.6798 23.6626 41.168 24.814H28.864C28.341 24.814 27.992 25.162 27.992 25.685C27.992 26.208 28.341 26.556 28.864 26.556H41.773C42.209 27.775 42.645 28.994 43.081 30.125H42.994L31.307 30.034C30.871 30.034 30.435 30.382 30.435 30.905C30.435 31.428 30.784 31.776 31.307 31.776H43.256C43.3706 31.7792 43.4846 31.7575 43.5901 31.7125C43.6956 31.6674 43.79 31.6001 43.867 31.515C45.96 37.174 47.705 42.31 48.49 44.747C48.054 45.095 47.792 45.53 47.531 45.966C43.78 43.354 33.576 36.303 24.592 31.341C24.592 31.341 24.505 31.341 24.505 31.254C23.546 30.732 22.586 30.209 21.627 29.774C20.842 29.339 20.057 29.078 19.185 28.903H19.011C16.22 28.207 13.167 28.642 10.638 30.122L0.432987 35.868C-0.0030126 36.129 -0.0900116 36.651 0.0839884 37.087C0.345988 37.522 0.868985 37.696 1.30499 37.435L11.597 31.689C13.254 30.731 15.086 30.383 16.918 30.47L6.45098 38.653C6.10198 38.914 6.01499 39.524 6.27699 39.872C6.45098 40.133 6.71299 40.22 6.97499 40.22C7.14899 40.22 7.32399 40.133 7.49799 40.046L19.186 30.905C19.797 31.079 20.32 31.253 20.93 31.601C21.453 31.862 22.064 32.21 22.587 32.472L10.638 41.439C10.289 41.7 10.202 42.31 10.464 42.658C10.638 42.919 10.9 43.006 11.162 43.006C11.336 43.006 11.511 42.919 11.685 42.832L24.158 33.256C25.1653 33.804 26.1544 34.3847 27.124 34.997L16.134 43.615C15.785 43.876 15.698 44.486 15.96 44.834C16.134 45.095 16.396 45.182 16.658 45.182C16.832 45.182 17.007 45.095 17.181 45.008L28.694 35.954C29.653 36.563 30.613 37.173 31.572 37.695L21.454 45.617C21.105 45.878 21.018 46.488 21.28 46.836C21.454 47.097 21.716 47.184 21.978 47.184C22.152 47.184 22.327 47.097 22.501 47.01L33.055 38.74L33.142 38.653L36.02 40.481L27.036 47.445C26.8752 47.5595 26.7604 47.7277 26.7124 47.9192C26.6644 48.1107 26.6862 48.3131 26.774 48.49C23.896 48.664 21.105 48.838 18.401 49.099H18.314C17.18 49.186 16.133 49.36 15.087 49.447C11.249 49.969 7.84799 52.32 6.10299 55.802L0.869988 66.423C0.695988 66.858 0.869987 67.381 1.21899 67.555C1.30599 67.642 1.48099 67.642 1.56799 67.642C1.91699 67.642 2.17899 67.468 2.35299 67.12L7.58599 56.499C8.42672 54.8095 9.72679 53.3912 11.337 52.407L7.41199 65.204C7.23799 65.639 7.49899 66.162 7.93499 66.336C8.02199 66.336 8.10899 66.423 8.19699 66.423C8.37572 66.4186 8.54836 66.3572 8.68962 66.2476C8.83088 66.138 8.93334 65.986 8.98199 65.814L13.692 51.624C14.215 51.45 14.826 51.276 15.349 51.276L17.181 51.015L12.471 65.292C12.297 65.727 12.558 66.25 12.994 66.424C13.081 66.424 13.168 66.511 13.256 66.511C13.4347 66.5066 13.6074 66.4452 13.7486 66.3356C13.8899 66.226 13.9923 66.074 14.041 65.902L19.013 50.842L22.415 50.581L18.141 63.9C17.967 64.335 18.228 64.858 18.664 65.032H18.926C19.275 65.032 19.624 64.771 19.798 64.423L24.334 50.407C25.468 50.32 26.602 50.233 27.736 50.233L23.985 62.421C23.811 62.856 24.072 63.379 24.508 63.553H24.77C24.9487 63.5486 25.1214 63.4872 25.2626 63.3776C25.4039 63.268 25.5063 63.116 25.555 62.944L29.654 50.147V49.973C30.352 49.973 31.137 49.886 31.835 49.886L31.748 50.06C31.399 50.321 31.312 50.931 31.574 51.279C31.748 51.54 32.01 51.627 32.272 51.627C32.359 51.627 32.534 51.627 32.621 51.54L29.568 60.768C29.394 61.203 29.655 61.726 30.091 61.9C30.178 61.9 30.265 61.987 30.353 61.987C30.5317 61.9826 30.7044 61.9212 30.8456 61.8116C30.9869 61.702 31.0893 61.55 31.138 61.378L34.801 50.235C34.801 50.148 34.888 49.974 34.801 49.887C36.022 49.887 37.156 49.8 38.203 49.8L34.714 60.508C34.54 60.943 34.801 61.466 35.237 61.64C35.324 61.64 35.411 61.727 35.499 61.727C35.6777 61.7226 35.8504 61.6612 35.9916 61.5516C36.1329 61.442 36.2353 61.29 36.284 61.118L39.86 50.323C39.947 50.149 39.86 49.975 39.86 49.888C44.221 49.801 47.274 49.801 47.361 49.801H47.448C47.448 49.888 47.535 49.975 47.535 49.975C47.448 50.149 47.361 50.323 47.361 50.497V85.754C46.663 85.493 46.14 85.145 45.529 84.709C44.046 83.838 42.476 82.794 39.336 82.794C36.196 82.794 34.539 83.839 33.143 84.709C31.747 85.58 30.439 86.363 27.822 86.363C25.205 86.363 23.897 85.58 22.501 84.709C21.018 83.838 19.448 82.794 16.308 82.794C13.168 82.794 11.511 83.839 10.115 84.709C8.71899 85.58 7.41099 86.363 4.79399 86.363C4.27099 86.363 3.92199 86.711 3.92199 87.234C3.92199 87.756 4.27099 88.105 4.79399 88.105C7.93399 88.105 9.59099 87.06 10.987 86.19C12.383 85.319 13.691 84.536 16.308 84.536C18.925 84.536 20.233 85.319 21.629 86.19C23.112 87.061 24.769 88.105 27.822 88.105C30.875 88.105 32.619 87.06 34.015 86.19C35.411 85.319 36.719 84.536 39.336 84.536C41.953 84.536 43.261 85.319 44.657 86.19C45.442 86.712 46.314 87.235 47.448 87.583V93.677C46.75 93.416 46.227 93.068 45.616 92.632C44.133 91.761 42.563 90.717 39.423 90.717C36.283 90.717 34.626 91.762 33.23 92.632C31.834 93.503 30.526 94.286 27.909 94.286C25.292 94.286 23.984 93.503 22.588 92.632C21.105 91.761 19.535 90.717 16.395 90.717C13.255 90.717 11.598 91.762 10.202 92.632C8.80599 93.503 7.49799 94.286 4.88099 94.286C4.35799 94.286 4.00899 94.634 4.00899 95.157C4.00899 95.679 4.35799 96.028 4.88099 96.028C8.02099 96.028 9.67799 94.983 11.074 94.113C12.47 93.242 13.778 92.459 16.395 92.459C19.012 92.459 20.32 93.242 21.716 94.113C23.199 94.984 24.856 96.028 27.909 96.028C30.962 96.028 32.706 94.983 34.102 94.113C35.498 93.242 36.806 92.459 39.423 92.459C42.04 92.459 43.348 93.242 44.744 94.113C45.529 94.635 46.401 95.158 47.535 95.506V100.207H5.05299V101.078C5.05299 120.839 17.438 137.728 34.883 144.344C34.796 144.518 34.709 144.692 34.709 144.866V154H67.504V144.946C67.504 144.772 67.417 144.511 67.33 144.424C84.687 137.808 97.16 120.919 97.16 101.158V100.287H54.509V95.586C55.643 95.238 56.515 94.715 57.3 94.193C58.696 93.322 60.004 92.539 62.621 92.539C65.238 92.539 66.546 93.323 67.942 94.193C69.425 95.064 71.082 96.108 74.135 96.108C77.188 96.108 78.932 95.063 80.328 94.193C81.724 93.322 83.032 92.539 85.649 92.539C88.266 92.539 89.574 93.323 90.97 94.193C92.453 95.064 94.11 96.108 97.163 96.108C97.686 96.108 98.035 95.76 98.035 95.237C98.035 94.715 97.686 94.366 97.163 94.366C94.546 94.366 93.238 93.582 91.842 92.712C90.359 91.841 88.789 90.797 85.649 90.797C82.509 90.797 80.852 91.842 79.456 92.712C78.06 93.583 76.752 94.366 74.135 94.366C71.518 94.366 70.21 93.582 68.814 92.712C67.331 91.841 65.761 90.797 62.621 90.797C59.481 90.797 57.824 91.842 56.428 92.712C55.817 93.06 55.294 93.408 54.596 93.757V87.663C55.73 87.315 56.602 86.792 57.387 86.27C58.783 85.399 60.091 84.616 62.708 84.616C65.325 84.616 66.633 85.399 68.029 86.27C69.512 87.141 71.169 88.185 74.222 88.185C77.362 88.185 79.019 87.14 80.415 86.27C81.811 85.399 83.119 84.616 85.736 84.616C88.353 84.616 89.661 85.399 91.057 86.27C92.54 87.141 94.197 88.185 97.25 88.185C97.773 88.185 98.122 87.837 98.122 87.314C98.122 86.792 97.773 86.443 97.25 86.443C94.633 86.443 93.325 85.66 91.929 84.789C90.446 83.918 88.876 82.874 85.736 82.874C82.596 82.874 80.939 83.919 79.543 84.789C78.147 85.66 76.839 86.443 74.222 86.443C71.605 86.443 70.297 85.66 68.901 84.789C67.418 83.918 65.848 82.874 62.708 82.874C59.568 82.874 57.911 83.919 56.515 84.789C55.904 85.137 55.381 85.485 54.683 85.834V49.621C54.77 49.621 57.736 49.621 62.184 49.708C62.184 49.882 62.097 50.056 62.184 50.143L65.76 60.938C65.8086 61.11 65.9111 61.262 66.0524 61.3716C66.1936 61.4812 66.3662 61.5426 66.545 61.547C66.632 61.547 66.719 61.547 66.807 61.46C67.243 61.286 67.505 60.851 67.33 60.328L63.841 49.62C64.888 49.62 66.109 49.707 67.243 49.707V50.055L70.906 61.198C70.9546 61.37 71.0571 61.522 71.1984 61.6316C71.3396 61.7412 71.5123 61.8026 71.691 61.807C71.778 61.807 71.865 61.807 71.953 61.72C72.389 61.546 72.651 61.111 72.476 60.588L69.423 51.36C69.51 51.447 69.685 51.447 69.772 51.447C70.034 51.447 70.295 51.36 70.47 51.099C70.732 50.751 70.732 50.141 70.296 49.88L70.122 49.706C70.82 49.706 71.605 49.793 72.303 49.793V49.967L76.402 62.764C76.4506 62.936 76.5531 63.088 76.6944 63.1976C76.8356 63.3072 77.0083 63.3686 77.187 63.373H77.449C77.885 63.199 78.147 62.764 77.972 62.241L74.134 50.053C75.268 50.14 76.402 50.14 77.536 50.227L82.072 64.243C82.1206 64.415 82.2231 64.567 82.3644 64.6766C82.5056 64.7862 82.6783 64.8476 82.857 64.852H83.119C83.555 64.678 83.817 64.243 83.642 63.72L79.368 50.401C80.502 50.488 81.723 50.575 82.77 50.662L87.742 65.722C87.7906 65.894 87.8931 66.046 88.0344 66.1556C88.1756 66.2652 88.3483 66.3266 88.527 66.331C88.614 66.331 88.701 66.331 88.789 66.244C89.225 66.07 89.487 65.635 89.312 65.112L84.689 50.922L86.521 51.183C87.132 51.27 87.655 51.444 88.265 51.618L92.888 65.808C92.9366 65.98 93.0391 66.132 93.1804 66.2416C93.3216 66.3512 93.4942 66.4126 93.673 66.417C93.76 66.417 93.847 66.417 93.935 66.33C94.371 66.156 94.633 65.721 94.458 65.198L90.271 52.488C91.841 53.446 93.149 54.838 94.022 56.58L99.255 67.201C99.429 67.549 99.691 67.723 100.04 67.723C100.127 67.723 100.302 67.723 100.389 67.636C100.825 67.462 101 66.94 100.738 66.504L95.505 55.883C94.197 53.271 92.016 51.269 89.312 50.224C89.138 50.05 88.789 49.963 88.527 49.963C87.916 49.789 87.219 49.615 86.521 49.528C85.474 49.354 84.428 49.267 83.294 49.18H83.207C80.503 48.919 77.625 48.745 74.834 48.571C74.9215 48.3941 74.9433 48.1918 74.8953 48.0003C74.8473 47.8088 74.7327 47.6407 74.572 47.526L65.588 40.562L68.466 38.734C68.466 38.734 68.466 38.821 68.553 38.821L79.107 47.091C79.281 47.178 79.456 47.265 79.63 47.265C79.892 47.265 80.153 47.178 80.328 46.917C80.59 46.569 80.59 45.959 80.154 45.698L70.036 37.776C70.995 37.167 71.955 36.557 72.914 36.035L84.689 44.828C84.863 44.915 85.038 45.002 85.212 45.002C85.474 45.002 85.735 44.915 85.91 44.654C86.172 44.306 86.172 43.696 85.736 43.435L74.746 34.817C75.793 34.208 76.752 33.685 77.712 33.076L90.185 42.652C90.359 42.739 90.534 42.826 90.708 42.826C90.97 42.826 91.231 42.739 91.406 42.478C91.668 42.13 91.668 41.52 91.232 41.259L79.37 32.118C79.893 31.857 80.504 31.509 81.027 31.247C81.638 30.986 82.161 30.725 82.771 30.551C82.771 30.551 82.771 30.638 82.858 30.638L94.458 39.779C94.632 39.866 94.807 39.953 94.981 39.953C95.243 39.953 95.504 39.866 95.679 39.605C95.941 39.257 95.941 38.647 95.505 38.386L85.038 30.203C86.8614 30.1182 88.6727 30.5401 90.271 31.422L100.563 37.168C100.999 37.429 101.522 37.255 101.784 36.82C102.131 36.65 102.043 36.128 101.607 35.867ZM52.763 78.088H49.274V73.3H52.676V78.088H52.763ZM49.274 51.188C49.797 51.449 50.408 51.623 51.018 51.623C51.629 51.623 52.239 51.449 52.762 51.188V53.364H49.273L49.274 51.188ZM52.763 71.646H49.274V65.552H52.676V71.646H52.763ZM52.763 63.811H49.274V60.329H52.676V63.811H52.763ZM52.763 58.588H49.274V55.106H52.676V58.588H52.763ZM28.777 48.315L37.499 41.612L37.673 41.438C38.632 42.047 39.592 42.744 40.551 43.353L34.358 48.141C32.528 48.141 30.696 48.228 28.777 48.315ZM37.238 48.054L41.774 44.572L41.948 44.398C44.303 45.965 46.047 47.271 47.094 47.967V48.054C45.96 47.88 42.122 47.88 37.238 48.054ZM65.672 144.946V152.346H36.365V144.946C40.988 146.513 45.872 147.384 51.018 147.384C56.165 147.384 61.049 146.513 65.672 144.946ZM51.019 145.643C26.946 145.643 7.23398 126.143 6.79799 102.029H95.328C94.804 126.142 75.092 145.643 51.019 145.643ZM52.763 100.287H49.274V96.021C49.797 96.108 50.321 96.108 51.018 96.108C51.629 96.108 52.239 96.021 52.762 96.021L52.763 100.287ZM52.763 94.193C52.24 94.28 51.716 94.367 51.019 94.367C50.321 94.367 49.798 94.28 49.275 94.193V87.925C49.798 88.012 50.322 88.012 51.019 88.012C51.63 88.012 52.24 87.925 52.763 87.925V94.193ZM51.019 86.358C50.408 86.358 49.798 86.271 49.275 86.184V79.829H52.677V86.184C52.24 86.358 51.629 86.358 51.019 86.358ZM54.856 47.88C55.903 47.097 57.734 45.791 60.002 44.224C60.089 44.311 60.089 44.398 60.176 44.398L64.712 47.88H54.856ZM64.538 41.612L73.26 48.315C71.341 48.228 69.509 48.141 67.765 48.141L61.572 43.353C62.444 42.744 63.404 42.134 64.45 41.438C64.364 41.438 64.451 41.525 64.538 41.612Z" fill="white"/>
</svg>
